# This file uses centimeters as units for non-parametric coordinates.

mtllib Cap.mtl
g default
v -0.113269 0.190816 0.113491
v 0.110216 0.190816 0.113491
v 0.110216 0.096745 0.113491
v -0.113269 0.096745 0.113491
v -0.113269 0.190816 -0.109991
v -0.113269 0.096745 -0.109991
v 0.110216 0.096745 -0.109991
v 0.110216 0.190816 -0.109991
v -0.079502 0.036199 -0.076973
v -0.079502 0.036199 0.080473
v 0.076450 0.036199 0.080473
v 0.076450 0.036199 -0.076973
vn -0.000000 0.000000 1.000000
vn -0.000000 0.000000 1.000000
vn -0.000000 0.000000 1.000000
vn -0.000000 0.000000 1.000000
vn -0.000000 0.000000 1.000000
vn -0.000000 0.000000 1.000000
vn 0.000000 0.000000 -1.000000
vn 0.000000 0.000000 -1.000000
vn 0.000000 0.000000 -1.000000
vn 0.000000 0.000000 -1.000000
vn 0.000000 0.000000 -1.000000
vn 0.000000 0.000000 -1.000000
vn 0.000000 -1.000000 0.000000
vn 0.000000 -1.000000 0.000000
vn 0.000000 -1.000000 0.000000
vn 0.000000 -1.000000 0.000000
vn 0.000000 -1.000000 0.000000
vn 0.000000 -1.000000 0.000000
vn -1.000000 0.000000 -0.000000
vn -1.000000 0.000000 -0.000000
vn -1.000000 0.000000 -0.000000
vn -1.000000 0.000000 -0.000000
vn -1.000000 0.000000 -0.000000
vn -1.000000 0.000000 -0.000000
vn 0.000000 1.000000 0.000000
vn 0.000000 1.000000 0.000000
vn 0.000000 1.000000 0.000000
vn 0.000000 1.000000 0.000000
vn 0.000000 1.000000 0.000000
vn 0.000000 1.000000 0.000000
vn 1.000000 0.000000 0.000000
vn 1.000000 0.000000 0.000000
vn 1.000000 0.000000 0.000000
vn 1.000000 0.000000 0.000000
vn 1.000000 0.000000 0.000000
vn 1.000000 0.000000 0.000000
vn -0.000000 -0.478773 0.877939
vn -0.000000 -0.478773 0.877939
vn -0.000000 -0.478773 0.877939
vn -0.000000 -0.478774 0.877938
vn -0.000000 -0.478774 0.877938
vn -0.000000 -0.478774 0.877938
vn 0.000000 -0.478776 -0.877937
vn 0.000000 -0.478776 -0.877937
vn 0.000000 -0.478776 -0.877937
vn 0.000000 -0.478768 -0.877941
vn 0.000000 -0.478768 -0.877941
vn 0.000000 -0.478768 -0.877941
vn -0.873366 -0.487064 -0.000000
vn -0.873366 -0.487064 -0.000000
vn -0.873366 -0.487064 -0.000000
vn -0.873358 -0.487079 -0.000000
vn -0.873358 -0.487079 -0.000000
vn -0.873358 -0.487079 -0.000000
vn 0.873366 -0.487064 0.000000
vn 0.873366 -0.487064 0.000000
vn 0.873366 -0.487064 0.000000
vn 0.873358 -0.487079 0.000000
vn 0.873358 -0.487079 0.000000
vn 0.873358 -0.487079 0.000000
s off
g polySurface8618 Flower_board:FlowerPl11
usemtl Side_Toukung1:sub039SG
f 1//1 3//2 2//3
f 1//4 4//5 3//6
f 5//7 7//8 6//9
f 7//10 5//11 8//12
f 9//13 11//14 10//15
f 11//16 9//17 12//18
f 5//19 4//20 1//21
f 4//22 5//23 6//24
f 1//25 2//26 8//27
f 1//28 8//29 5//30
f 7//31 2//32 3//33
f 2//34 7//35 8//36
f 10//37 3//38 4//39
f 3//40 10//41 11//42
f 12//43 6//44 7//45
f 6//46 12//47 9//48
f 9//49 4//50 6//51
f 4//52 9//53 10//54
f 11//55 7//56 3//57
f 7//58 11//59 12//60
